<svg width="19" height="15" viewBox="0 0 19 15" fill="none" xmlns="http://www.w3.org/2000/svg">
<path d="M13.6934 7.75586C14.0273 7.42188 14.0273 6.86523 13.6934 6.49414L7.45898 0.259766C6.86523 -0.296875 5.9375 0.111328 5.9375 0.890625V4.45312H0.890625C0.371094 4.45312 0 4.86133 0 5.34375V8.90625C0 9.42578 0.371094 9.79688 0.890625 9.79688H5.9375V13.3594C5.9375 14.1758 6.90234 14.5469 7.45898 13.9902L13.6934 7.75586ZM11.5688 13.8047V12.3203C11.5688 12.0977 11.7915 11.875 12.0142 11.875H15.1313C15.7993 11.875 16.3188 11.3555 16.3188 10.6875V3.5625C16.3188 2.93164 15.7993 2.375 15.1313 2.375H12.0142C11.7915 2.375 11.5688 2.18945 11.5688 1.92969V0.445312C11.5688 0.222656 11.7915 0 12.0142 0H15.1313C17.0981 0 18.6938 1.5957 18.6938 3.5625V10.6875C18.6938 12.6543 17.0981 14.25 15.1313 14.25H12.0142C11.7915 14.25 11.5688 14.0645 11.5688 13.8047Z" fill="#65646A"/>
</svg>
